<svg width="26" height="24" viewBox="0 0 26 24" fill="none" xmlns="http://www.w3.org/2000/svg">
<path d="M10.9778 17.6L21.1611 8.2L19.1389 6.33333L10.9778 13.8667L6.86111 10.0667L4.83889 11.9333L10.9778 17.6ZM2.88889 24C2.09445 24 1.41411 23.7387 0.847891 23.216C0.281669 22.6933 -0.00096051 22.0658 2.45237e-06 21.3333V2.66667C2.45237e-06 1.93334 0.283114 1.30534 0.849336 0.782669C1.41556 0.260002 2.09541 -0.000886625 2.88889 2.26372e-06H23.1111C23.9056 2.26372e-06 24.5859 0.261336 25.1521 0.784002C25.7183 1.30667 26.001 1.93422 26 2.66667V21.3333C26 22.0667 25.7169 22.6947 25.1507 23.2173C24.5844 23.74 23.9046 24.0009 23.1111 24H2.88889ZM2.88889 21.3333H23.1111V2.66667H2.88889V21.3333Z" fill="#818181"/>
</svg>
