<svg width="26" height="25" viewBox="0 0 26 25" fill="none" xmlns="http://www.w3.org/2000/svg">
<path d="M2.88889 25C2.09445 25 1.41411 24.7278 0.847891 24.1833C0.281669 23.6389 -0.00096051 22.9852 2.45237e-06 22.2222V2.77778C2.45237e-06 2.01389 0.283114 1.35972 0.849336 0.81528C1.41556 0.270835 2.09541 -0.000923568 2.88889 2.35805e-06H23.1111C23.9056 2.35805e-06 24.5859 0.272225 25.1521 0.816669C25.7183 1.36111 26.001 2.01482 26 2.77778V22.2222C26 22.9861 25.7169 23.6403 25.1507 24.1847C24.5844 24.7292 23.9046 25.0009 23.1111 25H2.88889ZM10.9778 17.7431C11.1704 17.7431 11.3509 17.7139 11.5194 17.6556C11.688 17.5972 11.8444 17.4991 11.9889 17.3611L20.1861 9.47917C20.4509 9.22454 20.5833 8.91204 20.5833 8.54167C20.5833 8.1713 20.4389 7.84722 20.15 7.56945C19.8852 7.31482 19.5481 7.1875 19.1389 7.1875C18.7296 7.1875 18.3926 7.31482 18.1278 7.56945L10.9778 14.4444L7.83611 11.4236C7.5713 11.169 7.2463 11.0417 6.86111 11.0417C6.47593 11.0417 6.13889 11.1806 5.85 11.4583C5.58519 11.713 5.45278 12.037 5.45278 12.4306C5.45278 12.8241 5.58519 13.1481 5.85 13.4028L9.96667 17.3611C10.1111 17.5 10.2676 17.5981 10.4361 17.6556C10.6046 17.713 10.7852 17.7421 10.9778 17.7431Z" fill="#C24332"/>
</svg>
