<svg width="25" height="24" viewBox="0 0 25 24" fill="none" xmlns="http://www.w3.org/2000/svg">
<path d="M19.9452 5.25H5.55712L4.32776 3.1346C4.18978 2.89715 3.92873 2.75 3.64551 2.75H2.08301C1.65154 2.75 1.30176 3.08579 1.30176 3.5C1.30176 3.91421 1.65154 4.25 2.08301 4.25H3.18676L4.39998 6.33765L7.19797 12.2809L7.20084 12.2869L7.44729 12.8104L4.63808 15.687C4.43609 15.8939 4.37286 16.1924 4.47466 16.4585C4.57646 16.7247 4.8259 16.913 5.11932 16.9452L7.67988 17.2261C10.8827 17.5775 14.1167 17.5775 17.3195 17.2261L19.8801 16.9452C20.3088 16.8981 20.6166 16.5264 20.5676 16.1148C20.5186 15.7033 20.1313 15.4078 19.7027 15.4549L17.1421 15.7358C14.0572 16.0742 10.9422 16.0742 7.85729 15.7358L6.84113 15.6243L8.90298 13.513C8.92292 13.4925 8.94145 13.4713 8.95855 13.4494L9.74274 13.5474C10.8416 13.6847 11.9524 13.7116 13.0571 13.6277C15.6336 13.4321 18.0216 12.2551 19.6887 10.3591L20.2909 9.67425C20.3111 9.65125 20.3298 9.62711 20.3471 9.60194L21.4693 7.96009C22.2648 6.79633 21.3952 5.25 19.9452 5.25Z" fill="#C24332"/>
<path d="M6.77051 18.5C5.90757 18.5 5.20801 19.1716 5.20801 20C5.20801 20.8284 5.90757 21.5 6.77051 21.5C7.63345 21.5 8.33301 20.8284 8.33301 20C8.33301 19.1716 7.63345 18.5 6.77051 18.5Z" fill="#C24332"/>
<path d="M16.6663 20C16.6663 19.1716 17.3659 18.5 18.2288 18.5C19.0918 18.5 19.7913 19.1716 19.7913 20C19.7913 20.8284 19.0918 21.5 18.2288 21.5C17.3659 21.5 16.6663 20.8284 16.6663 20Z" fill="#C24332"/>
</svg>
